HIERARCHY
ROOT Hips
{
  OFFSET -31.5692 30.0904 122.763
  CHANNELS 6 Xposition Yposition Zposition Zrotation Xrotation Yrotation
  JOINT LeftUpLeg
  {
    OFFSET 8.64259 1.95398 -2.38835
    CHANNELS 3 Zrotation Xrotation Yrotation
    JOINT LeftLeg
    {
      OFFSET 43.7702 0 0
      CHANNELS 3 Zrotation Xrotation Yrotation
      JOINT LeftFoot
      {
        OFFSET 40.6238 0 0
        CHANNELS 3 Zrotation Xrotation Yrotation
        JOINT LeftToeBase
        {
          OFFSET 12.7242 0 0
          CHANNELS 3 Zrotation Xrotation Yrotation
          End Site
          {
            OFFSET 0 0 0
          }
        }
      }
    }
  }
  JOINT RightUpLeg
  {
    OFFSET -8.2249 1.95398 -2.59336
    CHANNELS 3 Zrotation Xrotation Yrotation
    JOINT RightLeg
    {
      OFFSET 43.5653 0 0
      CHANNELS 3 Zrotation Xrotation Yrotation
      JOINT RightFoot
      {
        OFFSET 40.6238 0 0
        CHANNELS 3 Zrotation Xrotation Yrotation
        JOINT RightToeBase
        {
          OFFSET 12.7242 0 0
          CHANNELS 3 Zrotation Xrotation Yrotation
          End Site
          {
            OFFSET 0 0 0
          }
        }
      }
    }
  }
  JOINT Spine
  {
    OFFSET 0.165834 0.87714 6.61349
    CHANNELS 3 Zrotation Xrotation Yrotation
    JOINT Spine1
    {
      OFFSET 7.38963 1.71661e-005 0
      CHANNELS 3 Zrotation Xrotation Yrotation
      JOINT Spine2
      {
        OFFSET 11.9445 1.14441e-005 0
        CHANNELS 3 Zrotation Xrotation Yrotation
        JOINT Spine3
        {
          OFFSET 14.7254 4.19617e-005 0
          CHANNELS 3 Zrotation Xrotation Yrotation
          JOINT Spine4
          {
            OFFSET 10.9679 0 0
            CHANNELS 3 Zrotation Xrotation Yrotation
            JOINT RightShoulder
            {
              OFFSET 2.46616 -1.6653 3.69651
              CHANNELS 3 Zrotation Xrotation Yrotation
              JOINT RightArm
              {
                OFFSET 13.0012 0 0
                CHANNELS 3 Zrotation Xrotation Yrotation
                JOINT RightForeArm
                {
                  OFFSET 28.7848 1.62311e-005 0
                  CHANNELS 3 Zrotation Xrotation Yrotation
                  JOINT RightHand
                  {
                    OFFSET 26.5688 1.62095e-005 0
                    CHANNELS 3 Zrotation Xrotation Yrotation
                    End Site
                    {
                      OFFSET 0 0 0
                    }
                  }
                }
              }
            }
            JOINT LeftShoulder
            {
              OFFSET 2.38034 -1.29275 -3.7523
              CHANNELS 3 Zrotation Xrotation Yrotation
              JOINT LeftArm
              {
                OFFSET 16.3182 6.07031e-005 0
                CHANNELS 3 Zrotation Xrotation Yrotation
                JOINT LeftForeArm
                {
                  OFFSET 27.0901 0 0
                  CHANNELS 3 Zrotation Xrotation Yrotation
                  JOINT LeftHand
                  {
                    OFFSET 24.5451 1.51738e-005 0
                    CHANNELS 3 Zrotation Xrotation Yrotation
                    End Site
                    {
                      OFFSET 0 0 0
                    }
                  }
                }
              }
            }
            JOINT Neck
            {
              OFFSET 5.0226 -0.0266342 0
              CHANNELS 3 Zrotation Xrotation Yrotation
              JOINT Head
              {
                OFFSET 6.69364 2.86102e-005 0
                CHANNELS 3 Zrotation Xrotation Yrotation
                End Site
                {
                  OFFSET 0 0 0
                }
              }
            }
          }
        }
      }
    }
  }
}
MOTION
Frames:	12
Frame Time:	0.0416667
27.8474 96.1615 -252.49 76.6162 -55.9971 84.5209 -157.567 -8.87848 120.151 -14.6579 66.6225 7.40665 54.2679 -3.16624 2.75608 53.1477 11.5291 -10.9567 161.804 37.156 96.8812 -66.7549 3.23034 7.81314 86.368 -9.80482 -2.12961 19.4641 1.93194 8.39066 -5.26658 7.97263 -91.673 10.8488 -11.2584 -2.2759 -0.773801 -11.3475 -1.77196 -23.6243 -10.0497 -5.58461 -3.61167 -10.0497 -5.58462 92.8125 -14.163 -107.462 47.9102 -17.0429 51.439 -25.6396 -22.3203 -71.3938 -33.1897 6.9758 -37.9862 -83.911 -22.3983 83.5043 -8.54689 0.162412 -48.6447 35.8458 11.3867 -63.725 25.3217 -16.389 -58.7778 39.1099 5.17983 -9.79458 -23.1237 8.99667 3.98381 
27.8264 96.9396 -246.456 70.3412 -64.1004 79.0579 -156.631 -12.7988 117.757 -15.0097 59.351 8.18393 48.4753 -7.24992 -0.199693 23.7809 -0.0535058 -6.09814 167.568 40.5673 97.4581 -55.9508 0.437955 6.06696 82.0859 -9.10002 -2.74083 20.5781 1.43135 8.62578 -4.62737 7.79126 -91.8554 11.1952 -10.0714 -2.70701 -0.438227 -10.1807 -2.25686 -23.205 -8.79017 -5.62747 -3.1923 -8.79016 -5.62745 92.1898 -13.8178 -109.288 46.0135 -13.4096 52.4366 -25.3866 -20.8502 -71.35 -31.8533 6.98517 -39.0942 -83.9799 -22.0012 83.2624 -7.37523 2.69707 -46.0784 36.8092 14.4533 -64.2541 27.8938 -17.1809 -56.4299 40.8544 7.18488 -8.36667 -25.8404 10.1258 4.43882 
28.0491 96.6345 -240.671 60.3065 -74.2746 68.5008 -159.656 -21.2641 112.141 -14.1063 47.3614 5.71636 48.1229 -6.29273 -0.932905 19.2147 -2.94764 -3.93534 173.99 41.9858 98.114 -46.8304 -3.70464 2.82957 79.0201 -9.12497 -3.19727 20.4279 1.64568 8.06593 -3.66932 7.71445 -91.7606 11.3632 -8.12191 -2.69267 -0.284292 -8.23246 -2.3305 -22.9558 -6.93666 -5.01736 -2.94314 -6.93667 -5.01737 91.529 -14.9428 -110.354 44.1098 -10.8757 51.0304 -24.4115 -20.0682 -70.4982 -31.4119 6.50866 -37.2802 -84.4128 -23.7924 82.7511 -5.05863 7.14405 -44.2447 35.6345 15.7533 -62.0573 31.6742 -17.4824 -51.6295 39.9685 8.73776 -7.02449 -25.4212 10.9024 4.27559 
28.4124 95.5596 -235.221 24.1305 -82.6862 30.497 -166.462 -24.3519 100.896 -23.8501 35.2674 4.26948 51.214 -4.38508 0.569841 30.3939 1.92194 -3.78498 179.516 42.6912 98.1681 -41.2771 -9.25603 -0.375991 76.8785 -9.52016 -3.11771 21.9592 1.28612 7.14279 -2.61821 7.67659 -91.5226 11.4615 -5.92018 -2.43144 -0.19774 -6.02141 -2.16779 -22.7947 -4.91586 -4.1006 -2.782 -4.91587 -4.10062 91.2782 -17.4121 -109.61 41.5239 -9.04093 46.618 -25.6746 -21.4022 -69.382 -32.5669 6.06319 -34.7124 -84.8355 -29.3906 83.1069 -0.941431 12.6366 -43.1097 34.4676 16.527 -59.3968 31.8502 -18.5531 -53.9417 39.9244 10.3264 -3.98562 -24.4818 11.2992 2.22458 
28.6547 94.58 -229.378 -35.923 -82.3554 -31.4916 -170.55 -20.103 92.0359 -38.6056 25.725 2.48179 54.1983 -3.75626 -0.628683 33.4461 2.95034 -2.85272 -177.03 42.3331 97.797 -39.4922 -13.9551 -2.354 74.848 -9.58048 -3.7671 20.221 2.03395 6.97699 -1.79424 7.61865 -91.2436 11.5999 -4.1515 -2.04885 -0.0657536 -4.23763 -1.86394 -22.6254 -3.34399 -3.20232 -2.6128 -3.34399 -3.20231 90.6604 -21.8014 -108.855 37.712 -6.10667 40.5992 -28.717 -23.9365 -68.3092 -37.2748 7.02283 -34.5217 -86.2879 -34.8636 81.5614 0.519209 17.0472 -39.6339 39.4395 19.2226 -58.2877 25.9296 -16.3766 -57.4591 40.1774 10.8054 -2.07151 -24.3547 10.9897 1.26546 
28.5762 93.8187 -222.866 -56.4292 -80.7676 -52.9957 -169.936 -14.4684 89.9714 -52.6285 22.0115 0.854102 52.7226 -5.5252 0.510611 31.479 3.16749 -6.57614 -176.018 41.3672 97.7559 -43.1777 -16.5705 -3.47598 70.2835 -6.46525 -4.60243 22.1176 1.56259 5.84939 -1.26792 7.68832 -91.1801 11.4676 -3.07395 -2.03826 -0.201035 -3.16066 -1.90095 -22.742 -2.31948 -2.86778 -2.72934 -2.31949 -2.86779 90.6072 -24.4579 -107.764 35.4409 -2.05243 33.9121 -32.8049 -25.944 -68.2416 -39.248 5.97191 -30.3928 -87.1778 -40.648 81.226 2.32121 21.5479 -37.5244 36.4196 20.4088 -57.2735 25.6302 -14.6201 -53.0348 39.3329 11.1645 1.81036 -22.8863 9.75143 -0.494711 
28.1008 92.999 -215.869 -62.2484 -81.2495 -58.5487 -167.335 -7.43482 93.9518 -66.5746 17.8912 0.91084 53.244 -5.82729 1.90545 28.8374 2.07978 -6.4 -176.722 39.6282 98.27 -48.9946 -15.8995 -3.46069 68.408 -4.61377 -3.34027 20.9407 2.00726 5.99272 -1.03776 7.7122 -91.232 11.4207 -2.63993 -2.1869 -0.249192 -2.73359 -2.0686 -22.7818 -1.86091 -2.87894 -2.76913 -1.86091 -2.87894 90.0406 -26.5916 -108.046 35.2061 1.62126 27.7762 -33.4931 -25.0033 -67.7433 -42.5574 5.86438 -27.6415 -87.133 -45.5413 82.2448 0.52403 26.3103 -33.509 32.2419 20.3306 -52.9806 23.6955 -12.903 -51.2754 36.7215 11.4988 4.99325 -20.3651 8.86272 -1.82425 
27.7791 91.8878 -209.504 -61.7062 -81.0932 -57.3173 -165.894 2.4524 91.5113 -79.5858 10.9111 1.74863 56.4914 -4.48069 3.4664 30.5985 3.36768 -8.41236 -177.991 38.8383 99.5666 -55.7043 -13.8786 -2.77771 73.9679 -8.81592 -3.73693 23.2741 0.916618 6.5439 -0.727963 7.60436 -91.3421 11.637 -2.07695 -2.45887 -0.0344356 -2.18313 -2.36513 -22.5567 -1.24232 -2.96904 -2.5441 -1.24231 -2.96904 90.2505 -27.2281 -107.348 36.3328 4.60585 20.5146 -26.226 -18.2135 -65.6156 -38.0724 6.52813 -30.3011 -86.7403 -48.377 83.3536 -6.37835 28.1867 -25.8477 31.4713 23.523 -48.6898 20.9831 -11.5367 -51.6495 33.2987 11.1613 7.64347 -17.088 7.63248 -2.48608 
27.4086 91.0949 -203.525 -66.6461 -81.3829 -60.8413 -165.267 11.6383 95.3641 -90.5793 6.26153 2.99045 60.3588 -2.18233 5.55317 29.3821 2.98003 -8.63754 -179.454 35.2131 101.338 -59.0435 -13.0593 -2.19117 78.446 -12.2604 -3.92231 22.2658 1.08329 7.45499 -0.317559 7.66176 -91.4067 11.5276 -1.28966 -2.67052 -0.14537 -1.40591 -2.61123 -22.6594 -0.427839 -2.93443 -2.6468 -0.427827 -2.93442 90.0489 -28.7765 -107.137 37.9077 7.06884 11.4156 -28.9817 -17.7237 -67.6 -35.4317 6.03835 -30.8585 -86.9948 -49.5419 83.1587 -14.5953 26.0288 -14.3488 35.8682 28.547 -48.228 22.67 -12.0741 -50.3779 31.863 9.85591 8.62626 -15.3504 6.11251 -3.11812 
27.1251 90.5396 -197.379 -73.2181 -81.2519 -67.3252 -165.864 21.2617 94.6836 -98.1792 4.35494 3.74467 64.1762 0.726132 6.50194 21.3763 0.325391 -9.67617 179.765 30.3208 101.575 -61.0485 -14.2988 -2.37331 82.1814 -15.7437 -5.94572 24.1942 0.426653 7.02815 0.0478143 7.79463 -91.3063 11.2717 -0.512977 -2.55067 -0.40157 -0.624695 -2.52567 -22.9168 0.277043 -2.58693 -2.90411 0.277052 -2.58693 89.8715 -29.7748 -107.1 37.8784 6.16785 0.398621 -26.7222 -14.9594 -68.4848 -35.7395 6.29985 -30.6812 -86.5898 -48.9171 83.6719 -22.9125 22.8666 1.00206 36.5907 21.6256 -51.3456 19.1168 -10.0185 -49.8795 32.9127 8.28597 6.87223 -16.1036 5.12149 -1.62723 
26.9037 90.0998 -190.877 -73.8073 -80.7013 -68.1292 -166.711 30.55 93.2443 -101.531 5.26784 3.86507 67.171 3.31698 9.68747 21.3039 0.295213 -9.68845 179.781 25.2824 101.16 -61.0813 -13.7212 -2.75425 85.7844 -18.6212 -6.05993 26.5684 -0.595199 7.38244 0.389833 7.75954 -91.2373 11.3496 0.198963 -2.48355 -0.323688 0.0895016 -2.4899 -22.842 0.935964 -2.30911 -2.82933 0.935965 -2.30912 89.5329 -29.2962 -107.969 35.7844 3.94818 -9.00745 -26.9483 -14.3988 -70.0282 -38.8799 6.45043 -28.9356 -85.0881 -49.9472 86.0969 -26.3183 19.9485 15.8245 36.4612 15.7865 -54.3848 16.5373 -9.72359 -54.3871 32.4839 7.08459 6.71116 -15.9622 4.09952 -1.85941 
26.621 90.2793 -184.031 -78.753 -79.8239 -73.7693 -166.597 37.4123 91.7694 -99.9741 5.42041 3.48585 70.4313 5.79445 11.1556 23.8085 0.109628 -6.54554 -179.78 18.0564 99.8449 -58.2662 -13.0403 -3.60912 88.7604 -20.5022 -4.40873 27.7455 -0.84382 6.35418 0.968514 7.7193 -91.0424 11.4462 1.44014 -2.22271 -0.22598 1.34095 -2.28392 -22.7576 2.04149 -1.6873 -2.74492 2.0415 -1.68729 90.2959 -28.6386 -106.687 33.9633 3.24174 -16.6061 -23.9461 -11.5266 -71.145 -38.8232 7.12324 -30.1485 -85.1362 -46.7602 85.5776 -31.4691 18.3558 28.1334 36.0035 12.3201 -56.0442 16.1813 -9.69955 -54.9587 30.586 4.00465 4.97964 -15.118 1.87673 -0.936238 
